<svg version="1" xmlns="http://www.w3.org/2000/svg" width="1306.667" height="1306.667" viewBox="0 0 980.000000 980.000000"><path d="M533.5 134.3c-2.4 7-183.6 685.9-183.2 686.4 1.1 1 95.2 26 95.8 25.4 1.4-1.4 184.1-686.3 183.3-687-.5-.4-15.7-4.7-33.9-9.6-18.1-4.8-39.4-10.5-47.3-12.6-10.1-2.6-14.4-3.4-14.7-2.6zM116 368.6C43.1 444.3 0 489.7.4 490.5.7 491.3 53 546 116.6 612l115.8 120.1 35-35 35.1-35.1-8.6-8.7C265.1 624 137 490.7 137 490c0-.4 37-39.1 82.3-86 45.2-46.8 82.4-85.6 82.6-86.2.4-1.2-4.3-6.1-41-41.9L232.2 248 116 368.6zM712.7 282.1c-19.1 18.8-34.7 34.8-34.5 35.5.2.7 37.3 39.6 82.6 86.4 45.2 46.9 82.2 85.6 82.2 86 0 .7-128.1 134-156.9 163.3l-8.6 8.7 35.1 35.1 35 35L863.4 612c63.6-66 115.9-120.7 116.2-121.5.4-.8-38.7-42.1-106.6-112.7-59-61.2-111.4-115.5-116.4-120.5l-9.1-9.3-34.8 34.1z"/></svg>